<?xml version="1.0"?><svg width="793.7007874015749" height="1122.5196850393702" xmlns="http://www.w3.org/2000/svg">
 <title>Gum Leaves</title>

 <g>
  <title>Layer 1</title>
  <g id="svg_23">
   <g transform="rotate(147.68, 505.859, 498.484)" id="svg_1">
    <path id="svg_2" fill="#000000" stroke-width="1px" d="m-308.384125,-265.888916l0,0"/>
    <path id="svg_3" fill="#000000" stroke-width="1px" d="m-308.910797,-211.430328l0,0"/>
    <path id="svg_4" fill="#000000" stroke-width="1px" d="m-266.136688,-265.888916l0,0"/>
    <path id="svg_5" fill="#000000" stroke-width="1px" d="m-265.948547,-211.430328l0,0"/>
    <path id="svg_6" fill="#000000" stroke-width="1px" d="m-132.171204,-265.888916l0,0"/>
    <path id="svg_7" fill="#000000" stroke-width="1px" d="m-133.036469,-211.430328l0,0"/>
    <path id="svg_8" fill="#000000" stroke-width="1px" d="m2.697125,-265.888916l0,0"/>
    <path id="svg_9" fill="#000000" stroke-width="1px" d="m2.546665,-211.430328l0,0"/>
    <path id="svg_10" fill="#54a800" fill-rule="evenodd" stroke-width="1px" d="m363.502747,672.039001c101.100952,-8.971497 155.678406,-57.775391 242.20282,-212.453613c0,0 -114.442688,216.829956 -229.752594,201.142944l-12.450226,11.310669z"/>
    <path id="svg_11" fill="#54a800" fill-rule="evenodd" stroke-linecap="square" stroke-miterlimit="4" d="m647.919312,324.933777c-28.470947,71.665619 -84.720276,124.023621 -126.800659,162.945923c-21.040283,19.461182 -39.553802,38.15918 -50.308502,60.913696c-10.754669,22.754578 -13.512604,49.466187 -3.505554,84.071411l8.00943,2.650391c0,0 -1.162231,-4.676086 -1.341309,-5.321045c10.38327,1.741089 50.385864,4.961304 89.886047,-26.743469c45.780945,-36.746033 89.39325,-114.692932 83.90155,-278.521759l0.158997,0.004852zm-6.845093,19.850769c1.42511,149.033325 -39.84314,220.042236 -81.765686,253.691406c-40.310059,32.354675 -79.649567,30.793396 -85.828552,30.348206c-8.883453,-32.305725 -6.168762,-56.491211 3.714508,-77.4021c10.125,-21.422363 27.922394,-39.561829 48.822723,-58.893494c38.559631,-35.665771 87.461609,-75.432281 115.057007,-147.744019z"/>
   </g>
   <g id="svg_12" transform="rotate(163.705, 442.359, 521.484)">
    <path id="svg_13" fill="#000000" stroke-width="1px" d="m-464.072327,-416.867432l0,0"/>
    <path id="svg_14" fill="#000000" stroke-width="1px" d="m-464.65863,-350.01355l0,0"/>
    <path id="svg_15" fill="#000000" stroke-width="1px" d="m-417.041656,-416.867432l0,0"/>
    <path id="svg_16" fill="#000000" stroke-width="1px" d="m-416.832214,-350.01355l0,0"/>
    <path id="svg_17" fill="#000000" stroke-width="1px" d="m-267.908661,-416.867432l0,0"/>
    <path id="svg_18" fill="#000000" stroke-width="1px" d="m-268.871887,-350.01355l0,0"/>
    <path id="svg_19" fill="#000000" stroke-width="1px" d="m-117.770584,-416.867432l0,0"/>
    <path id="svg_20" fill="#000000" stroke-width="1px" d="m-117.93808,-350.01355l0,0"/>
    <path id="svg_21" fill="#54a800" fill-rule="evenodd" stroke-width="1px" d="m283.885315,734.541687c112.547577,-11.013489 173.30423,-70.925598 269.624939,-260.810059c0,0 -127.399841,266.182495 -255.765106,246.924988l-13.859833,13.885071z"/>
    <path id="svg_22" fill="#54a800" fill-rule="evenodd" stroke-linecap="square" stroke-miterlimit="4" d="m600.503418,308.432068c-31.694458,87.977386 -94.312317,152.252594 -141.157013,200.033936c-23.422424,23.890747 -44.032043,46.844604 -56.004364,74.778259c-11.972321,27.933716 -15.042511,60.725159 -3.902466,103.206848l8.91626,3.253601c0,0 -1.293823,-5.740356 -1.493164,-6.532104c11.558868,2.137329 56.090515,6.090515 100.062866,-32.830566c50.964233,-45.109741 99.514343,-140.798157 93.400879,-341.915924l0.177002,0.005951zm-7.620117,24.368988c1.586487,182.954681 -44.354187,270.125946 -91.023193,311.433929c-44.873871,39.718933 -88.667389,37.802307 -95.545959,37.255798c-9.889252,-39.658875 -6.867188,-69.349182 4.135071,-95.019592c11.271332,-26.298279 31.083771,-48.566467 54.350311,-72.298157c42.925385,-43.783661 97.364044,-92.60141 128.083771,-181.371979z"/>
   </g>
  </g>
 </g>
</svg>