<?xml version="1.0" encoding="utf-8"?>
<!-- Generator: Adobe Illustrator 15.1.0, SVG Export Plug-In . SVG Version: 6.00 Build 0)  -->
<!DOCTYPE svg PUBLIC "-//W3C//DTD SVG 1.1//EN" "http://www.w3.org/Graphics/SVG/1.1/DTD/svg11.dtd">
<svg version="1.1" id="Layer_1" xmlns="http://www.w3.org/2000/svg" xmlns:xlink="http://www.w3.org/1999/xlink" x="0px" y="0px"
	 width="365px" height="360px" viewBox="0 0 365 360" enable-background="new 0 0 365 360" xml:space="preserve">
<g>
	<path fill="#FF4400" d="M77.333,72.108c0,0-67.858-73.63-71.133-72.084s46.2,86.94,46.2,86.94"/>
	<g>
		<defs>
			<path id="SVGID_1_" d="M77.333,72.108c0,0-67.858-73.63-71.133-72.084s46.2,86.94,46.2,86.94"/>
		</defs>
		<clipPath id="SVGID_2_">
			<use xlink:href="#SVGID_1_"  overflow="visible"/>
		</clipPath>
		<path clip-path="url(#SVGID_2_)" fill="none" stroke="#FFFFFF" stroke-miterlimit="10" d="M32.484,61.637
			c-3.026-8.104-1.415-41.471,11.228-30.429"/>
		<path clip-path="url(#SVGID_2_)" fill="none" stroke="#FFFFFF" stroke-miterlimit="10" d="M40.387,77.942
			c1.248-8.557,2.409-42.986,17.463-34.461"/>
		<path clip-path="url(#SVGID_2_)" fill="none" stroke="#FFFFFF" stroke-miterlimit="10" d="M52.897,92.625
			c1.248-8.558,2.411-42.987,17.464-34.461"/>
	</g>
	<path fill="#231F20" d="M283.536,137.439c8.303-10.925,33.123-17.216,48.965-5.26s24.482,27.474,24.482,40.041
		c0,12.567-22.562,26.827-22.562,38.349c0,11.522,18.242,26.259,30.244,0c4.8,29.696-43.205,31.52-62.408,0
		C283.055,179.048,281.021,140.749,283.536,137.439z"/>
	<g>
		<path fill="#231F20" d="M254.252,330.177c6.354,0,9.477-3.695,11.744-13.702h-21.318
			C246.688,324.744,249.602,330.177,254.252,330.177z"/>
		<path fill="#231F20" d="M289.776,329.698c2.714,0,4.801-3.633,6.46-9.622H281.3C283.365,326.475,285.998,329.698,289.776,329.698z
			"/>
		<path fill="#231F20" d="M127.039,353.421c3.376,0,5.464-5.422,6.7-13.539h-15.844
			C120.792,348.072,123.889,353.421,127.039,353.421z"/>
		<path fill="#231F20" d="M82.874,360c8.641,0,9.875-11.723,10.959-23.205H70.166C71.044,347.426,74.008,360,82.874,360z"/>
		<path fill="#79DCFF" d="M274.414,132.657c-53.285,0-136.333,6.695-136.333,6.695s0.48-86.563-23.043-84.65
			c2.968-7.052,1.439-38.711-6.792-38.432c-6.651,0.225-12.914,20.265-12.41,26.844C88.154,27.919,78.073,19.79,73.752,24.572
			c-4.32,4.782-3.839,24.391,9.602,39.216C48.311,81.961,0,105.397,0,117.831c0,12.436,17.164,11,59.889,11
			c0,0,9.595,192.564,10.024,203.737c0.051,1.347,0.133,2.769,0.253,4.227h23.667c0.18-1.913,0.356-3.818,0.561-5.662
			c1.441-12.912,6.721-75.085,6.721-75.085s7.318,57.08,16.779,83.834h15.844c3.681-24.196-0.221-72.356-0.221-72.356
			s81.37,1.914,104.413-8.13c2.462,18.401,3.153,42.294,6.747,57.08h21.318c2.361-10.403,3.797-27.629,6.979-54.689
			c3.001,28.108,4.877,47.617,8.325,58.291h14.937c4.501-16.257,5.838-49.91,7.941-75.661
			C307.058,209.177,327.699,132.657,274.414,132.657z"/>
	</g>
	<ellipse fill="#231F20" cx="133.278" cy="61.637" rx="14.162" ry="14.108"/>
	<ellipse fill="#231F20" cx="143.321" cy="83.979" rx="16.282" ry="16.221"/>
	<ellipse fill="#231F20" cx="147.439" cy="114.045" rx="16.281" ry="16.221"/>
	<path fill="#231F20" d="M145.276,137.88c0-8.959,7.289-16.22,16.281-16.22s16.282,7.261,16.282,16.22"/>
	<path fill="#231F20" d="M173.327,139.479c0-8.111,6.601-14.687,14.741-14.687c8.144,0,14.744,6.575,14.744,14.687"/>
	<ellipse fill="#231F20" cx="207.032" cy="135.445" rx="9.684" ry="9.646"/>
	<path fill="#231F20" d="M207.031,145.091c0,0-48.789,9.567-68.951-5.739c-20.162-15.305-18.964-77.715-18.964-77.715l26.16,55.716
		l21.127,14.396h22.726L207.031,145.091z"/>
	<rect x="127.039" y="83.979" fill="#231F20" width="26.299" height="26.2"/>
	<rect x="121.989" y="67.758" fill="#231F20" width="13.98" height="13.926"/>
	<g>
		<path fill="none" stroke="#231F20" stroke-width="2" stroke-linecap="round" stroke-miterlimit="10" d="M96.82,85.302
			c-2.777,4.781-7.964,7.997-13.906,7.997s-11.129-3.216-13.906-7.997"/>
		
			<line fill="none" stroke="#231F20" stroke-width="2" stroke-linecap="round" stroke-miterlimit="10" x1="74.385" y1="90.847" x2="70.361" y2="97.239"/>
		
			<line fill="none" stroke="#231F20" stroke-width="2" stroke-linecap="round" stroke-miterlimit="10" x1="79.791" y1="93.299" x2="78.403" y2="100.403"/>
		
			<line fill="none" stroke="#231F20" stroke-width="2" stroke-linecap="round" stroke-miterlimit="10" x1="85.724" y1="93.046" x2="87.049" y2="100.473"/>
		
			<line fill="none" stroke="#231F20" stroke-width="2" stroke-linecap="round" stroke-miterlimit="10" x1="91.223" y1="90.984" x2="95.144" y2="97.438"/>
	</g>
	<path fill="none" stroke="#FFFFFF" stroke-linecap="round" stroke-miterlimit="10" d="M201.26,198.986
		c1.159,27.026,12.679,55.111,71.715,62.799"/>
	<path fill="none" stroke="#FFFFFF" stroke-linecap="round" stroke-miterlimit="10" d="M131.844,293.552
		c0,6.35-5.167,11.498-11.542,11.498c-5.099,0-9.232-4.12-9.232-9.199c0-4.063,3.307-7.357,7.387-7.357
		c3.263,0,5.909,2.635,5.909,5.886c0,2.602-2.118,4.709-4.728,4.709c-2.089,0-3.783-1.687-3.783-3.768
		c0-1.665,1.355-3.014,3.027-3.014c1.336,0,2.42,1.08,2.42,2.412"/>
	<path fill="none" stroke="#FFFFFF" stroke-linecap="round" stroke-miterlimit="10" d="M83.551,278.22
		c4.767,3.709,5.611,10.566,1.887,15.314c-2.978,3.798-8.482,4.472-12.297,1.504c-3.05-2.374-3.591-6.762-1.208-9.802
		c1.907-2.43,5.431-2.862,7.872-0.962c1.951,1.521,2.297,4.33,0.774,6.274c-1.223,1.555-3.479,1.831-5.04,0.615
		c-1.248-0.972-1.469-2.77-0.496-4.014c0.784-0.996,2.228-1.172,3.225-0.395"/>
	<g>
		<g>
			
				<polyline fill="none" stroke="#FFFFFF" stroke-width="3" stroke-linecap="round" stroke-linejoin="round" stroke-miterlimit="10" points="
				229.986,150.1 231.029,172.776 248.926,170.179 			"/>
			
				<line fill="none" stroke="#FFFFFF" stroke-width="3" stroke-linecap="round" stroke-miterlimit="10" x1="241.107" y1="153.735" x2="244.062" y2="181.604"/>
		</g>
		<g>
			
				<polyline fill="none" stroke="#FFFFFF" stroke-width="3" stroke-linecap="round" stroke-linejoin="round" stroke-miterlimit="10" points="
				282.896,154.254 283.368,167.063 299.576,164.467 			"/>
			
				<line fill="none" stroke="#FFFFFF" stroke-width="3" stroke-linecap="round" stroke-miterlimit="10" x1="292.181" y1="153.389" x2="295.171" y2="175.892"/>
		</g>
		<g>
			<path fill="none" stroke="#FFFFFF" stroke-width="3" stroke-linecap="round" stroke-linejoin="round" stroke-miterlimit="10" d="
				M276.378,160.063c1.682,7.928-1.896,15.395-7.991,16.678c-6.094,1.282-12.397-4.104-14.08-12.031
				c-1.682-7.927,1.897-15.394,7.991-16.676C268.392,146.751,274.697,152.137,276.378,160.063z"/>
			
				<line fill="none" stroke="#FFFFFF" stroke-width="3" stroke-linecap="round" stroke-linejoin="round" stroke-miterlimit="10" x1="274.533" y1="142.099" x2="253.228" y2="187.255"/>
		</g>
	</g>
	<g>
		<path fill="#33CCFF" d="M100.996,116.301c0,2.856-2.324,5.172-5.191,5.172c-2.868,0-5.192-2.316-5.192-5.172
			c0-2.857,5.192-9.744,5.192-9.744S100.996,113.444,100.996,116.301z"/>
		<path fill="#33CCFF" d="M100.996,135.668c0,2.856-2.324,5.172-5.191,5.172c-2.868,0-5.192-2.316-5.192-5.172
			c0-2.857,5.192-9.744,5.192-9.744S100.996,132.811,100.996,135.668z"/>
	</g>
</g>
</svg>
