<?xml version="1.0" encoding="utf-8"?>
<!-- Generator: Adobe Illustrator 16.2.1, SVG Export Plug-In . SVG Version: 6.00 Build 0)  -->
<!DOCTYPE svg PUBLIC "-//W3C//DTD SVG 1.1//EN" "http://www.w3.org/Graphics/SVG/1.1/DTD/svg11.dtd">
<svg version="1.1" id="Layer_1" xmlns="http://www.w3.org/2000/svg" xmlns:xlink="http://www.w3.org/1999/xlink" x="0px" y="0px"
	 width="512px" height="512px" viewBox="0 0 512 512" enable-background="new 0 0 512 512" xml:space="preserve">
<path d="M256,0C114.609,0,0,114.609,0,256c0,141.391,114.608,256,256,256c141.391,0,256-114.609,256-256
	C512,114.609,397.391,0,256,0z M256,472c-119.297,0-216-96.703-216-216S136.703,40,256,40s216,96.703,216,216S375.297,472,256,472z"
	/>
<polygon points="153.63,314.884 152.255,350.418 183.031,351.609 184.406,316.075 198.956,316.639 200.039,288.66 198.008,288.581 
	96.062,312.656 "/>
<path d="M273.468,309.996c-0.542,13.989-6.903,19.067-16.696,18.688c-9.792-0.378-15.742-5.934-15.201-19.922l1.19-30.749
	l-31.107,7.347l-0.784,20.252c-1.213,31.337,14.602,49.882,44.819,51.052s47.417-16.098,48.63-47.435l1.787-46.175L275,270.399
	L273.468,309.996z"/>
<polygon points="378.219,246.024 376.305,295.482 345.808,294.303 367.139,248.641 334.887,256.257 317.549,293.208 
	316.466,321.187 375.222,323.46 373.847,358.994 404.623,360.186 405.998,324.651 420.548,325.215 421.631,297.236 407.081,296.673 
	409.326,238.679 "/>
<path d="M164.557,147.66l-33.578,1.215L79.805,283.253l1.012,27.98l1.188-0.043l99.86-31.631l-12.519,0.453L164.557,147.66z
	 M138.566,281.126l-30.5,1.104l27.877-73.576L138.566,281.126z"/>
<path d="M237.227,142.789c-30.219,1.093-46.081,19.599-44.946,50.939l2.952,81.598l30.47-9.651l-2.714-75.02
	c-0.506-13.991,5.458-19.53,15.251-19.884c9.793-0.354,16.142,4.739,16.648,18.729l2.394,66.172l30.471-9.652l-2.014-55.674
	C284.604,159.006,267.448,141.695,237.227,142.789z"/>
<polygon points="357.557,200.635 358.389,223.645 388.86,213.994 386.169,139.641 352.592,140.856 315.945,237.09 347.535,227.083 
	"/>
</svg>
