<?xml version="1.0" encoding="UTF-8" standalone="no"?>
<!-- Created with Inkscape (http://www.inkscape.org/) -->
<svg
   xmlns:dc="http://purl.org/dc/elements/1.1/"
   xmlns:cc="http://creativecommons.org/ns#"
   xmlns:rdf="http://www.w3.org/1999/02/22-rdf-syntax-ns#"
   xmlns:svg="http://www.w3.org/2000/svg"
   xmlns="http://www.w3.org/2000/svg"
   xmlns:xlink="http://www.w3.org/1999/xlink"
   xmlns:sodipodi="http://sodipodi.sourceforge.net/DTD/sodipodi-0.dtd"
   xmlns:inkscape="http://www.inkscape.org/namespaces/inkscape"
   height="405.04773"
   id="svg2"
   inkscape:version="0.45+devel"
   sodipodi:docbase="/Users/johnolsen/Desktop/OpenClipart/unsorted"
   sodipodi:docname="home_piche_loic_corwin_r_01.svg"
   sodipodi:version="0.32"
   width="402.888"
   inkscape:output_extension="org.inkscape.output.svg.inkscape"
   version="1.0">
  <metadata
     id="metadata3">
    <rdf:RDF>
      <cc:Work
         rdf:about="">
        <dc:title>Home Piche</dc:title>
        <dc:description />
        <dc:subject>
          <rdf:Bag>
            <rdf:li>house</rdf:li>
            <rdf:li>accueil</rdf:li>
            <rdf:li>building</rdf:li>
            <rdf:li>maison</rdf:li>
            <rdf:li>home</rdf:li>
          </rdf:Bag>
        </dc:subject>
        <dc:publisher>
          <cc:Agent
             rdf:about="http://www.openclipart.org">
            <dc:title>Open Clip Art Library</dc:title>
          </cc:Agent>
        </dc:publisher>
        <dc:creator>
          <cc:Agent>
            <dc:title>Loïc &quot;Corwin&quot; Richard</dc:title>
          </cc:Agent>
        </dc:creator>
        <dc:rights>
          <cc:Agent>
            <dc:title>Loïc &quot;Corwin&quot; Richard</dc:title>
          </cc:Agent>
        </dc:rights>
        <dc:date />
        <dc:format>image/svg+xml</dc:format>
        <dc:type
           rdf:resource="http://purl.org/dc/dcmitype/StillImage" />
        <cc:license
           rdf:resource="http://web.resource.org/cc/PublicDomain" />
        <dc:language>en</dc:language>
      </cc:Work>
      <cc:License
         rdf:about="http://web.resource.org/cc/PublicDomain">
        <cc:permits
           rdf:resource="http://web.resource.org/cc/Reproduction" />
        <cc:permits
           rdf:resource="http://web.resource.org/cc/Distribution" />
        <cc:permits
           rdf:resource="http://web.resource.org/cc/DerivativeWorks" />
      </cc:License>
    </rdf:RDF>
  </metadata>
  <defs
     id="defs3">
    <linearGradient
       id="linearGradient3128">
      <stop
         id="stop3130"
         offset="0"
         style="stop-color:#ff6100;stop-opacity:1;" />
      <stop
         id="stop3136"
         offset="0.50000000"
         style="stop-color:#ffdc69;stop-opacity:1.0000000;" />
      <stop
         id="stop3132"
         offset="1.0000000"
         style="stop-color:#ff6100;stop-opacity:1.0000000;" />
    </linearGradient>
    <linearGradient
       id="linearGradient3120">
      <stop
         id="stop3122"
         offset="0"
         style="stop-color:#ff6100;stop-opacity:1;" />
      <stop
         id="stop3124"
         offset="1.0000000"
         style="stop-color:#fff800;stop-opacity:1.0000000;" />
    </linearGradient>
    <linearGradient
       gradientTransform="scale(0.822478,1.215838)"
       gradientUnits="userSpaceOnUse"
       id="linearGradient4322"
       inkscape:collect="always"
       x1="521.7384"
       x2="651.2525"
       xlink:href="#linearGradient3128"
       y1="111.1145"
       y2="112.25605" />
    <radialGradient
       cx="219.75159"
       cy="84.939987"
       fx="219.75159"
       fy="84.939987"
       gradientTransform="matrix(1.536501,0,0,0.745032,-53.03026,0)"
       gradientUnits="userSpaceOnUse"
       id="radialGradient4324"
       inkscape:collect="always"
       r="499.79141"
       xlink:href="#linearGradient3120" />
  </defs>
  <sodipodi:namedview
     bordercolor="#666666"
     borderopacity="1.0"
     id="base"
     inkscape:current-layer="layer1"
     inkscape:cx="386.34632"
     inkscape:cy="20.911545"
     inkscape:document-units="px"
     inkscape:guide-bbox="true"
     inkscape:pageopacity="0.0"
     inkscape:pageshadow="2"
     inkscape:window-height="989"
     inkscape:window-width="917"
     inkscape:window-x="132"
     inkscape:window-y="0"
     inkscape:zoom="0.76552309"
     pagecolor="#ffffff"
     showguides="true"
     showgrid="false" />
  <g
     id="layer1"
     inkscape:groupmode="layer"
     inkscape:label="Layer 1"
     transform="translate(-13.807549,-16.935174)">
    <g
       id="g4305"
       transform="matrix(0.570704,0,0,0.490732,5.182031,5.470045)">
      <path
         d="M 719.06296,831.21102 C 719.06296,826.36796 685.48067,821.98114 631.20931,818.80508 C 576.93793,815.62902 501.97747,815.46454 419.22114,815.46454 C 336.46479,815.46454 261.50433,815.62902 207.23296,818.80508 C 152.96159,821.98114 119.37931,826.36796 119.37931,831.21102 C 119.37931,840.89712 253.70844,848.7583 419.22114,848.7583 C 584.73382,848.7583 719.06296,840.89712 719.06296,831.21102 z "
         id="path3165"
         inkscape:export-filename="C:\Documents and Settings\admin\Bureau\Raccourcis\home.png"
         inkscape:export-xdpi="90.000000"
         inkscape:export-ydpi="90.000000"
         sodipodi:nodetypes="cscsccc"
         style="fill:#454545;fill-opacity:1;stroke:none;stroke-width:3;stroke-miterlimit:4;stroke-opacity:1" />
      <rect
         height="177.6563"
         id="rect3118"
         inkscape:export-filename="C:\Documents and Settings\admin\Bureau\Raccourcis\home.png"
         inkscape:export-xdpi="90.000000"
         inkscape:export-ydpi="90.000000"
         rx="26.2833"
         ry="30.566589"
         style="fill:url(#linearGradient4322);fill-opacity:1;stroke:none;stroke-width:3;stroke-miterlimit:4;stroke-opacity:1"
         width="120.17926"
         x="444.14075"
         y="50.432907" />
      <path
         d="M 666.49603,449.52756 C 666.49603,546.34488 627.20784,634.04172 563.71533,697.53424 C 500.22281,761.02675 412.52596,764.31494 315.70865,764.31494 C 218.89133,764.31494 131.19448,761.02675 67.701968,697.53424 C 4.2094513,634.04172 -35.078735,546.34488 -35.078735,449.52756 C -35.078735,255.89292 122.07401,98.740173 315.70865,98.740173 C 509.34328,98.740173 666.49603,255.89292 666.49603,449.52756 z "
         id="path1291"
         inkscape:export-filename="C:\Documents and Settings\admin\Bureau\Raccourcis\home.png"
         inkscape:export-xdpi="90.000000"
         inkscape:export-ydpi="90.000000"
         sodipodi:nodetypes="cscsccc"
         style="fill:#ff0000;fill-opacity:1;stroke:none;stroke-width:3;stroke-miterlimit:4;stroke-opacity:1"
         transform="translate(54.56693,83.1496)" />
      <path
         d="M 362.48597,342.97736 C 236.35916,342.97736 133.54032,248.58983 71.71875,348.59375 C 95.286926,362.96542 306.03951,395.99999 404.375,396 C 504.88754,396.00001 650.54331,358.71442 667.90625,347.15625 C 663.67402,340.38383 659.2023,333.79654 654.53125,327.34375 C 654.53125,327.34375 439.04487,342.97736 362.48597,342.97736 z "
         id="path2058"
         inkscape:export-filename="C:\Documents and Settings\admin\Bureau\Raccourcis\home.png"
         inkscape:export-xdpi="90.000000"
         inkscape:export-ydpi="90.000000"
         sodipodi:nodetypes="cccccc"
         style="fill:#e40000;fill-opacity:1;stroke:none;stroke-width:3;stroke-miterlimit:4;stroke-opacity:1" />
      <path
         d="M 15.11382,330.01119 L 366.378,23.36332 L 717.64215,330.01121 C 600.5541,354.16606 526.96625,364.01121 409.8782,364.0112 C 292.79014,364.01119 136.66367,354.16605 15.11382,330.01119 z "
         id="path1294"
         inkscape:export-filename="C:\Documents and Settings\admin\Bureau\Raccourcis\home.png"
         inkscape:export-xdpi="90.000000"
         inkscape:export-ydpi="90.000000"
         sodipodi:nodetypes="ccczc"
         style="fill:url(#radialGradient4324);fill-opacity:1;stroke:none;stroke-width:3;stroke-miterlimit:4;stroke-opacity:1" />
      <path
         d="M 256.90625,504 C 198.09869,504 158.375,581.64351 158.375,674.875 C 158.375,721.49074 170.31083,791.74201 189.59375,822.3125 C 190.33669,823.49033 191.1105,824.49961 191.875,825.5625 C 218.90718,836.06602 248.25192,841.57089 279.3125,844.40625 C 291.10769,845.10369 321.9323,846.28784 322.29274,845.2706 C 322.40389,845.06229 332.19471,835.03353 340.21875,822.3125 C 359.50166,791.74203 363.4375,721.49074 363.4375,674.875 C 363.4375,581.64351 315.71381,504.00001 256.90625,504 z "
         id="path2349"
         inkscape:export-filename="C:\Documents and Settings\admin\Bureau\Raccourcis\home.png"
         inkscape:export-xdpi="90.000000"
         inkscape:export-ydpi="90.000000"
         sodipodi:nodetypes="ccccccccc"
         style="fill:#bd0000;fill-opacity:1;stroke:none;stroke-width:3;stroke-miterlimit:4;stroke-opacity:1" />
      <path
         d="M 594.36481 540.94714 A 73.152596 93.400185 0 1 1  448.05962,540.94714 A 73.152596 93.400185 0 1 1  594.36481 540.94714 z"
         id="path3110"
         inkscape:export-filename="C:\Documents and Settings\admin\Bureau\Raccourcis\home.png"
         inkscape:export-xdpi="90.000000"
         inkscape:export-ydpi="90.000000"
         sodipodi:cx="521.21222"
         sodipodi:cy="540.94714"
         sodipodi:rx="73.152596"
         sodipodi:ry="93.400185"
         sodipodi:type="arc"
         style="fill:#bd0000;fill-opacity:1;stroke:none;stroke-width:3;stroke-miterlimit:4;stroke-opacity:1"
         transform="translate(-6.531482,-43.10778)" />
      <path
         d="M 594.36481 540.94714 A 73.152596 93.400185 0 1 1  448.05962,540.94714 A 73.152596 93.400185 0 1 1  594.36481 540.94714 z"
         id="path3112"
         inkscape:export-filename="C:\Documents and Settings\admin\Bureau\Raccourcis\home.png"
         inkscape:export-xdpi="90.000000"
         inkscape:export-ydpi="90.000000"
         sodipodi:cx="521.21222"
         sodipodi:cy="540.94714"
         sodipodi:rx="73.152596"
         sodipodi:ry="93.400185"
         sodipodi:type="arc"
         style="fill:#ff6100;fill-opacity:1;stroke:none;stroke-width:3;stroke-miterlimit:4;stroke-opacity:1"
         transform="matrix(0.901786,0,0,0.944056,37.84363,-15.61982)" />
      <path
         d="M 340.94333 685.29291 A 30.697964 7.8377781 0 1 1  279.5474,685.29291 A 30.697964 7.8377781 0 1 1  340.94333 685.29291 z"
         id="path3114"
         inkscape:export-filename="C:\Documents and Settings\admin\Bureau\Raccourcis\home.png"
         inkscape:export-xdpi="90.000000"
         inkscape:export-ydpi="90.000000"
         sodipodi:cx="310.24536"
         sodipodi:cy="685.29291"
         sodipodi:rx="30.697964"
         sodipodi:ry="7.8377781"
         sodipodi:type="arc"
         style="fill:#ff6100;fill-opacity:1;stroke:none;stroke-width:3;stroke-miterlimit:4;stroke-opacity:1"
         transform="translate(1.306296,-1.306296)" />
      <path
         d="M 393.82593,640.87885 L 605.49075,640.87885 C 613.80075,640.87885 620.49075,647.56885 620.49075,655.87885 L 620.49075,710.78811 C 620.49075,719.09811 613.80075,725.78811 605.49075,725.78811 L 393.82593,725.78811 C 385.51593,725.78811 378.82593,719.09811 378.82593,710.78811 L 378.82593,655.87885 C 378.82593,647.56885 385.51593,640.87885 393.82593,640.87885 z "
         id="rect3156"
         inkscape:export-filename="C:\Documents and Settings\admin\Bureau\Raccourcis\home.png"
         inkscape:export-xdpi="90.000000"
         inkscape:export-ydpi="90.000000"
         style="fill:#ca4900;fill-opacity:1;stroke:none;stroke-width:3;stroke-miterlimit:4;stroke-opacity:1" />
      <rect
         height="134.54852"
         id="rect3158"
         inkscape:export-filename="C:\Documents and Settings\admin\Bureau\Raccourcis\home.png"
         inkscape:export-xdpi="90.000000"
         inkscape:export-ydpi="90.000000"
         rx="26.2833"
         ry="30.566589"
         style="fill:#ca4900;fill-opacity:1;stroke:none;stroke-width:3;stroke-miterlimit:4;stroke-opacity:1"
         width="36.576298"
         x="475.57297"
         y="714.03143" />
      <path
         transform="scale(1.002128,0.997877)"
         style="font-size:64.84355927px;font-style:normal;font-variant:normal;font-weight:bold;font-stretch:normal;line-height:100%;writing-mode:lr-tb;text-anchor:start;fill:#ffdb00;fill-opacity:1;stroke:none;stroke-width:1px;stroke-linecap:butt;stroke-linejoin:miter;stroke-opacity:1;font-family:Arial"
         d="M 404.40852,707.39404 L 404.40852,660.97771 L 413.78045,660.97771 L 413.78045,679.24662 L 432.14434,679.24662 L 432.14434,660.97771 L 441.51626,660.97771 L 441.51626,707.39404 L 432.14434,707.39404 L 432.14434,687.09877 L 413.78045,687.09877 L 413.78045,707.39404 L 404.40852,707.39404 M 449.21011,684.47083 C 449.2101,679.74268 449.91722,675.7744 451.33145,672.56596 C 452.38684,670.20191 453.82218,668.08056 455.63747,666.20192 C 457.47385,664.32336 459.4791,662.93023 461.65323,662.02255 C 464.545,660.79834 467.88005,660.18621 471.65839,660.18616 C 478.49733,660.18621 483.96427,662.30755 488.05925,666.5502 C 492.17525,670.79293 494.23327,676.69259 494.23332,684.2492 C 494.23327,691.74253 492.19636,697.61053 488.12257,701.85321 C 484.04871,706.0748 478.60286,708.18559 471.78504,708.18559 C 464.88272,708.18559 459.39467,706.08535 455.32085,701.88487 C 451.24702,697.6633 449.2101,691.85862 449.21011,684.47083 M 458.86698,684.15421 C 458.86697,689.41011 460.08068,693.3995 462.5081,696.12241 C 464.93549,698.82423 468.01725,700.17514 471.75337,700.17513 C 475.48945,700.17514 478.5501,698.83479 480.93532,696.15407 C 483.34159,693.45227 484.54474,689.41011 484.54478,684.02757 C 484.54474,678.7084 483.37325,674.74011 481.03031,672.12269 C 478.7084,669.50535 475.6161,668.19666 471.75337,668.19662 C 467.8906,668.19666 464.77718,669.52646 462.41312,672.18602 C 460.04901,674.82454 458.86697,678.81394 458.86698,684.15421 M 501.51555,707.39404 L 501.51555,660.97771 L 515.54177,660.97771 L 523.96383,692.6396 L 532.29091,660.97771 L 546.34879,660.97771 L 546.34879,707.39404 L 537.64177,707.39404 L 537.64177,670.85622 L 528.42816,707.39404 L 519.40452,707.39404 L 510.22257,670.85622 L 510.22257,707.39404 L 501.51555,707.39404 M 555.59407,707.39404 L 555.59407,660.97771 L 590.01055,660.97771 L 590.01055,668.82986 L 564.96599,668.82986 L 564.96599,679.11997 L 588.26915,679.11997 L 588.26915,686.94046 L 564.96599,686.94046 L 564.96599,699.57356 L 590.89708,699.57356 L 590.89708,707.39404 L 555.59407,707.39404"
         id="text3161" />
      <path
         d="M 594.36481 540.94714 A 73.152596 93.400185 0 1 1  448.05962,540.94714 A 73.152596 93.400185 0 1 1  594.36481 540.94714 z"
         id="path3193"
         inkscape:export-filename="C:\Documents and Settings\admin\Bureau\Raccourcis\home.png"
         inkscape:export-xdpi="90.000000"
         inkscape:export-ydpi="90.000000"
         sodipodi:cx="521.21222"
         sodipodi:cy="540.94714"
         sodipodi:rx="73.152596"
         sodipodi:ry="93.400185"
         sodipodi:type="arc"
         style="fill:#bd0000;fill-opacity:1;stroke:none;stroke-width:3;stroke-miterlimit:4;stroke-opacity:1"
         transform="matrix(-0.723215,0,0,1,454.6065,-51.10778)" />
      <path
         d="M 594.36481 540.94714 A 73.152596 93.400185 0 1 1  448.05962,540.94714 A 73.152596 93.400185 0 1 1  594.36481 540.94714 z"
         id="path3195"
         inkscape:export-filename="C:\Documents and Settings\admin\Bureau\Raccourcis\home.png"
         inkscape:export-xdpi="90.000000"
         inkscape:export-ydpi="90.000000"
         sodipodi:cx="521.21222"
         sodipodi:cy="540.94714"
         sodipodi:rx="73.152596"
         sodipodi:ry="93.400185"
         sodipodi:type="arc"
         style="fill:#ff6100;fill-opacity:1;stroke:none;stroke-width:3;stroke-miterlimit:4;stroke-opacity:1"
         transform="matrix(-0.652184,0,0,0.944056,422.5137,-23.61982)" />
    </g>
  </g>
</svg>
