<?xml version="1.0" encoding="UTF-8" standalone="no"?>
<!-- Created with Inkscape (http://www.inkscape.org/) -->

<svg
   xmlns:dc="http://purl.org/dc/elements/1.1/"
   xmlns:cc="http://creativecommons.org/ns#"
   xmlns:rdf="http://www.w3.org/1999/02/22-rdf-syntax-ns#"
   xmlns:svg="http://www.w3.org/2000/svg"
   xmlns="http://www.w3.org/2000/svg"
   xmlns:inkscape="http://www.inkscape.org/namespaces/inkscape"
   version="1.1"
   width="399.23749"
   height="375.76251"
   id="svg2"
   xml:space="preserve"><metadata
     id="metadata8"><rdf:RDF><cc:Work
         rdf:about=""><dc:format>image/svg+xml</dc:format><dc:type
           rdf:resource="http://purl.org/dc/dcmitype/StillImage" /></cc:Work></rdf:RDF></metadata><defs
     id="defs6" /><g
     transform="matrix(1.25,0,0,-1.25,0,375.7625)"
     id="g10"><g
       transform="scale(0.1,0.1)"
       id="g12"><path
         d="M 2022.09,276.727 C 2022.09,129.422 1907.72,10 1766.66,10 c -141.07,0 -255.43,119.422 -255.43,266.727 0,147.324 114.36,266.75 255.43,266.75 141.06,0 255.43,-119.426 255.43,-266.75"
         inkscape:connector-curvature="0"
         id="path14"
         style="fill:#231f20;fill-opacity:1;fill-rule:nonzero;stroke:none" /><path
         d="M 2022.09,276.727 C 2022.09,129.422 1907.72,10 1766.66,10 c -141.07,0 -255.43,119.422 -255.43,266.727 0,147.324 114.36,266.75 255.43,266.75 141.06,0 255.43,-119.426 255.43,-266.75 z"
         inkscape:connector-curvature="0"
         id="path16"
         style="fill:none;stroke:#ffffff;stroke-width:20;stroke-linecap:butt;stroke-linejoin:miter;stroke-miterlimit:4;stroke-opacity:1;stroke-dasharray:none" /><path
         d="m 1451.41,289.035 c 0,-144.836 -120.21,-262.2577 -268.5,-262.2577 -148.28,0 -268.496,117.4217 -268.496,262.2577 0,144.832 120.216,262.254 268.496,262.254 148.29,0 268.5,-117.422 268.5,-262.254"
         inkscape:connector-curvature="0"
         id="path18"
         style="fill:#231f20;fill-opacity:1;fill-rule:nonzero;stroke:none" /><path
         d="m 1451.41,289.035 c 0,-144.836 -120.21,-262.2577 -268.5,-262.2577 -148.28,0 -268.496,117.4217 -268.496,262.2577 0,144.832 120.216,262.254 268.496,262.254 148.29,0 268.5,-117.422 268.5,-262.254 z"
         inkscape:connector-curvature="0"
         id="path20"
         style="fill:none;stroke:#ffffff;stroke-width:20;stroke-linecap:butt;stroke-linejoin:miter;stroke-miterlimit:4;stroke-opacity:1;stroke-dasharray:none" /><path
         d="m 2111.45,426.719 c 0,-132.071 -266.04,-239.133 -594.2,-239.133 -328.17,0 -594.207,107.062 -594.207,239.133 0,132.07 266.037,239.129 594.207,239.129 328.16,0 594.2,-107.059 594.2,-239.129"
         inkscape:connector-curvature="0"
         id="path22"
         style="fill:#ffffff;fill-opacity:1;fill-rule:nonzero;stroke:none" /><path
         d="m 2111.45,426.719 c 0,-132.071 -266.04,-239.133 -594.2,-239.133 -328.17,0 -594.207,107.062 -594.207,239.133 0,132.07 266.037,239.129 594.207,239.129 328.16,0 594.2,-107.059 594.2,-239.129 z"
         inkscape:connector-curvature="0"
         id="path24"
         style="fill:none;stroke:#231f20;stroke-width:20;stroke-linecap:butt;stroke-linejoin:miter;stroke-miterlimit:4;stroke-opacity:1;stroke-dasharray:none" /><path
         d="m 995.508,2361.5 c 0,-350.48 -220.613,-634.61 -492.754,-634.61 C 230.613,1726.89 10,2011.02 10,2361.5 c 0,350.49 220.613,634.61 492.754,634.61 272.141,0 492.754,-284.12 492.754,-634.61"
         inkscape:connector-curvature="0"
         id="path26"
         style="fill:#231f20;fill-opacity:1;fill-rule:nonzero;stroke:none" /><path
         d="m 995.508,2361.5 c 0,-350.48 -220.613,-634.61 -492.754,-634.61 C 230.613,1726.89 10,2011.02 10,2361.5 c 0,350.49 220.613,634.61 492.754,634.61 272.141,0 492.754,-284.12 492.754,-634.61 z"
         inkscape:connector-curvature="0"
         id="path28"
         style="fill:none;stroke:#ffffff;stroke-width:20;stroke-linecap:butt;stroke-linejoin:miter;stroke-miterlimit:4;stroke-opacity:1;stroke-dasharray:none" /><path
         d="m 3183.92,2332.52 c 0,-350.49 -220.62,-634.61 -492.75,-634.61 -272.14,0 -492.77,284.12 -492.77,634.61 0,350.48 220.63,634.6 492.77,634.6 272.13,0 492.75,-284.12 492.75,-634.6"
         inkscape:connector-curvature="0"
         id="path30"
         style="fill:#231f20;fill-opacity:1;fill-rule:nonzero;stroke:none" /><path
         d="m 3183.92,2332.52 c 0,-350.49 -220.62,-634.61 -492.75,-634.61 -272.14,0 -492.77,284.12 -492.77,634.61 0,350.48 220.63,634.6 492.77,634.6 272.13,0 492.75,-284.12 492.75,-634.6 z"
         inkscape:connector-curvature="0"
         id="path32"
         style="fill:none;stroke:#ffffff;stroke-width:20;stroke-linecap:butt;stroke-linejoin:miter;stroke-miterlimit:4;stroke-opacity:1;stroke-dasharray:none" /><path
         d="M 3010,1658.6 C 3010,1014.27 2370.88,491.934 1582.46,491.934 794.059,491.934 154.926,1014.27 154.926,1658.6 c 0,644.34 639.133,1166.67 1427.534,1166.67 788.42,0 1427.54,-522.33 1427.54,-1166.67"
         inkscape:connector-curvature="0"
         id="path34"
         style="fill:#ffffff;fill-opacity:1;fill-rule:nonzero;stroke:none" /><path
         d="M 3010,1658.6 C 3010,1014.27 2370.88,491.934 1582.46,491.934 794.059,491.934 154.926,1014.27 154.926,1658.6 c 0,644.34 639.133,1166.67 1427.534,1166.67 788.42,0 1427.54,-522.33 1427.54,-1166.67 z"
         inkscape:connector-curvature="0"
         id="path36"
         style="fill:none;stroke:#231f20;stroke-width:20;stroke-linecap:butt;stroke-linejoin:miter;stroke-miterlimit:4;stroke-opacity:1;stroke-dasharray:none" /><path
         d="M 1181.36,1553.59 C 1062.73,1278.17 784.594,1133.3 560.152,1229.98 335.691,1326.68 249.906,1628.32 368.555,1903.71 487.188,2179.12 765.32,2324 989.77,2227.3 1214.21,2130.62 1300,1828.98 1181.36,1553.59"
         inkscape:connector-curvature="0"
         id="path38"
         style="fill:#231f20;fill-opacity:1;fill-rule:nonzero;stroke:none" /><path
         d="M 1181.36,1553.59 C 1062.73,1278.17 784.594,1133.3 560.152,1229.98 335.691,1326.68 249.906,1628.32 368.555,1903.71 487.188,2179.12 765.32,2324 989.77,2227.3 1214.21,2130.62 1300,1828.98 1181.36,1553.59 z"
         inkscape:connector-curvature="0"
         id="path40"
         style="fill:none;stroke:#ffffff;stroke-width:20;stroke-linecap:butt;stroke-linejoin:miter;stroke-miterlimit:4;stroke-opacity:1;stroke-dasharray:none" /><path
         d="m 1038.98,1571.65 c 0,-92.04 -71.367,-166.67 -159.414,-166.67 -88.046,0 -159.418,74.63 -159.418,166.67 0,92.05 71.372,166.67 159.418,166.67 88.047,0 159.414,-74.62 159.414,-166.67"
         inkscape:connector-curvature="0"
         id="path42"
         style="fill:#231f20;fill-opacity:1;fill-rule:nonzero;stroke:none" /><path
         d="m 1038.98,1571.65 c 0,-92.04 -71.367,-166.67 -159.414,-166.67 -88.046,0 -159.418,74.63 -159.418,166.67 0,92.05 71.372,166.67 159.418,166.67 88.047,0 159.414,-74.62 159.414,-166.67 z"
         inkscape:connector-curvature="0"
         id="path44"
         style="fill:none;stroke:#ffffff;stroke-width:20;stroke-linecap:butt;stroke-linejoin:miter;stroke-miterlimit:4;stroke-opacity:1;stroke-dasharray:none" /><path
         d="m 2684.71,1958.67 c 172.53,-257.5 139.13,-582.36 -74.58,-725.56 -213.76,-143.23 -526.89,-50.57 -699.44,206.94 -172.53,257.49 -139.13,582.35 74.62,725.56 213.73,143.21 526.85,50.56 699.4,-206.94"
         inkscape:connector-curvature="0"
         id="path46"
         style="fill:#231f20;fill-opacity:1;fill-rule:nonzero;stroke:none" /><path
         d="m 2684.71,1958.67 c 172.53,-257.5 139.13,-582.36 -74.58,-725.56 -213.76,-143.23 -526.89,-50.57 -699.44,206.94 -172.53,257.49 -139.13,582.35 74.62,725.56 213.73,143.21 526.85,50.56 699.4,-206.94 z"
         inkscape:connector-curvature="0"
         id="path48"
         style="fill:none;stroke:#ffffff;stroke-width:20;stroke-linecap:butt;stroke-linejoin:miter;stroke-miterlimit:4;stroke-opacity:1;stroke-dasharray:none" /><path
         d="m 2328.83,1535.42 c 0,-92.04 -71.37,-166.67 -159.41,-166.67 -88.05,0 -159.42,74.63 -159.42,166.67 0,92.04 71.37,166.67 159.42,166.67 88.04,0 159.41,-74.63 159.41,-166.67"
         inkscape:connector-curvature="0"
         id="path50"
         style="fill:#231f20;fill-opacity:1;fill-rule:nonzero;stroke:none" /><path
         d="m 2328.83,1535.42 c 0,-92.04 -71.37,-166.67 -159.41,-166.67 -88.05,0 -159.42,74.63 -159.42,166.67 0,92.04 71.37,166.67 159.42,166.67 88.04,0 159.41,-74.63 159.41,-166.67 z"
         inkscape:connector-curvature="0"
         id="path52"
         style="fill:none;stroke:#ffffff;stroke-width:20;stroke-linecap:butt;stroke-linejoin:miter;stroke-miterlimit:4;stroke-opacity:1;stroke-dasharray:none" /><path
         d="m 1256.37,984.688 231.88,-173.907 289.86,173.907 -521.74,0"
         inkscape:connector-curvature="0"
         id="path54"
         style="fill:#231f20;fill-opacity:1;fill-rule:nonzero;stroke:none" /><path
         d="m 1256.37,984.688 231.88,-173.907 289.86,173.907 -521.74,0 z"
         inkscape:connector-curvature="0"
         id="path56"
         style="fill:none;stroke:#ffffff;stroke-width:20;stroke-linecap:butt;stroke-linejoin:miter;stroke-miterlimit:4;stroke-opacity:1;stroke-dasharray:none" /><path
         d="m 1227.39,701.355 c 0,0 188.39,28.997 260.86,159.426 72.48,130.43 -28.98,-159.426 159.43,-130.441"
         inkscape:connector-curvature="0"
         id="path58"
         style="fill:#ffffff;fill-opacity:1;fill-rule:nonzero;stroke:none" /><path
         d="m 1227.39,701.355 c 0,0 188.39,28.997 260.86,159.426 72.48,130.43 -28.98,-159.426 159.43,-130.441"
         inkscape:connector-curvature="0"
         id="path60"
         style="fill:none;stroke:#231f20;stroke-width:20;stroke-linecap:butt;stroke-linejoin:miter;stroke-miterlimit:4;stroke-opacity:1;stroke-dasharray:none" /><path
         d="m 1169.42,694.836 c 0,-168.086 -139.51,-304.348 -311.6,-304.348 -172.082,0 -311.59,136.262 -311.59,304.348 0,168.082 139.508,304.344 311.59,304.344 172.09,0 311.6,-136.262 311.6,-304.344"
         inkscape:connector-curvature="0"
         id="path62"
         style="fill:#231f20;fill-opacity:1;fill-rule:nonzero;stroke:none" /><path
         d="m 1169.42,694.836 c 0,-168.086 -139.51,-304.348 -311.6,-304.348 -172.082,0 -311.59,136.262 -311.59,304.348 0,168.082 139.508,304.344 311.59,304.344 172.09,0 311.6,-136.262 311.6,-304.344 z"
         inkscape:connector-curvature="0"
         id="path64"
         style="fill:none;stroke:#ffffff;stroke-width:20;stroke-linecap:butt;stroke-linejoin:miter;stroke-miterlimit:4;stroke-opacity:1;stroke-dasharray:none" /><path
         d="m 2481.01,731.797 c 0,-168.086 -139.51,-304.344 -311.6,-304.344 -172.08,0 -311.59,136.258 -311.59,304.344 0,168.086 139.51,304.343 311.59,304.343 172.09,0 311.6,-136.257 311.6,-304.343"
         inkscape:connector-curvature="0"
         id="path66"
         style="fill:#231f20;fill-opacity:1;fill-rule:nonzero;stroke:none" /><path
         d="m 2481.01,731.797 c 0,-168.086 -139.51,-304.344 -311.6,-304.344 -172.08,0 -311.59,136.258 -311.59,304.344 0,168.086 139.51,304.343 311.59,304.343 172.09,0 311.6,-136.257 311.6,-304.343 z"
         inkscape:connector-curvature="0"
         id="path68"
         style="fill:none;stroke:#ffffff;stroke-width:20;stroke-linecap:butt;stroke-linejoin:miter;stroke-miterlimit:4;stroke-opacity:1;stroke-dasharray:none" /></g></g></svg>